# xmcd CD database file
#
# Track frame offsets:
#	150
#	17578
#	34663
#	52110
#
# Disc length: 921 seconds
#
# Revision: 0
# Processed by: cddbd v1.5.1PL2 Copyright (c) Steve Scherf et al.
# Submitted via: CDex 1.51
#
DISCID=2a039704
DTITLE=勝 誠二＆石動拳三 - 映画CG版「ビーストウォーズ〜超生命体トランスフォーマー〜メタルス」主題歌
DYEAR=1998
DGENRE=Anime
TTITLE0=始まりの唄
TTITLE1=果てしないこの宇宙(SORA)へ
TTITLE2=始まりの唄[オリジナル・カラオケ]
TTITLE3=果てしないこの宇宙(SORA)へ[オリジナル・カラオケ]
EXTD=YEAR: 1998
EXTT0=
EXTT1=
EXTT2=
EXTT3=
PLAYORDER=
